
<svg xmlns="http://www.w3.org/2000/svg" viewBox="0 0 79.4 12.87"><defs><style>.cls-1{fill:#fff;}</style></defs><g id="Layer_2" data-name="Layer 2"><g id="Layer_1-2" data-name="Layer 1"><path class="cls-1" d="M5.34,12.87a5.73,5.73,0,0,1-4-1.23A4.48,4.48,0,0,1,0,8.12,5,5,0,0,1,1.28,4.55,4.75,4.75,0,0,1,4.87,3.22,4.07,4.07,0,0,1,8,4.35,4.52,4.52,0,0,1,9.08,7.58v1H2.84a2.76,2.76,0,0,0,.27,1.08,1.88,1.88,0,0,0,.6.68,2.58,2.58,0,0,0,.86.37,5,5,0,0,0,1.06.11,4.6,4.6,0,0,0,1-.11,5.34,5.34,0,0,0,.88-.3,3.87,3.87,0,0,0,.64-.34c.2-.12.36-.23.49-.32h.3v2.35l-.64.25a5.13,5.13,0,0,1-.79.24,6.15,6.15,0,0,1-1,.19A8.24,8.24,0,0,1,5.34,12.87Zm.94-6A2.27,2.27,0,0,0,5.86,5.5,1.48,1.48,0,0,0,4.65,5a1.71,1.71,0,0,0-1.3.5,2.11,2.11,0,0,0-.51,1.36Z"/><path class="cls-1" d="M19.08,12.63H16.24V8.11c0-.37,0-.73,0-1.1A2.35,2.35,0,0,0,16,6.2a.9.9,0,0,0-.42-.44,1.72,1.72,0,0,0-.74-.13,2,2,0,0,0-.71.13,3.42,3.42,0,0,0-.77.41v6.46H10.54V3.51h2.84v1a7,7,0,0,1,1.36-.93,3.24,3.24,0,0,1,1.47-.33,2.64,2.64,0,0,1,2.13.88,3.91,3.91,0,0,1,.74,2.56Z"/><path class="cls-1" d="M24,12.87a7.87,7.87,0,0,1-1.91-.22,6.68,6.68,0,0,1-1.48-.51V9.74h.24l.46.34a3.58,3.58,0,0,0,.72.39,5.27,5.27,0,0,0,.9.32,4.17,4.17,0,0,0,1.09.14A2.9,2.9,0,0,0,25,10.74a.62.62,0,0,0,.45-.59.57.57,0,0,0-.21-.48,2.35,2.35,0,0,0-.82-.31l-.82-.17A6.86,6.86,0,0,1,22.77,9a3.28,3.28,0,0,1-1.61-1,2.62,2.62,0,0,1-.54-1.72,2.44,2.44,0,0,1,.28-1.15,2.85,2.85,0,0,1,.82-1,4.29,4.29,0,0,1,1.34-.65,5.89,5.89,0,0,1,1.8-.25,8,8,0,0,1,1.76.19A6.73,6.73,0,0,1,28,3.91V6.22h-.23a5,5,0,0,0-.46-.31c-.21-.12-.42-.23-.62-.32a4.17,4.17,0,0,0-.8-.27,3.82,3.82,0,0,0-.9-.11,2.32,2.32,0,0,0-1,.21A.63.63,0,0,0,23.5,6a.62.62,0,0,0,.21.49,2.47,2.47,0,0,0,.92.34l.84.18a6.37,6.37,0,0,1,.91.23,3,3,0,0,1,1.49.93,2.47,2.47,0,0,1,.51,1.63,2.65,2.65,0,0,1-.3,1.22,2.72,2.72,0,0,1-.85,1,4.43,4.43,0,0,1-1.38.67A6.61,6.61,0,0,1,24,12.87Z"/><path class="cls-1" d="M34.41,12.87a5.76,5.76,0,0,1-4-1.23,4.48,4.48,0,0,1-1.38-3.52,5,5,0,0,1,1.28-3.57,4.76,4.76,0,0,1,3.59-1.33,4.07,4.07,0,0,1,3.15,1.13,4.52,4.52,0,0,1,1.06,3.23v1H31.92a2.6,2.6,0,0,0,.26,1.08,2,2,0,0,0,.61.68,2.44,2.44,0,0,0,.85.37,5.1,5.1,0,0,0,1.07.11,4.51,4.51,0,0,0,1-.11,5.34,5.34,0,0,0,.88-.3,4.44,4.44,0,0,0,.65-.34c.19-.12.36-.23.48-.32H38v2.35l-.64.25a5.13,5.13,0,0,1-.79.24,6.15,6.15,0,0,1-1,.19A8.24,8.24,0,0,1,34.41,12.87Zm.94-6a2.27,2.27,0,0,0-.42-1.38A1.48,1.48,0,0,0,33.72,5a1.72,1.72,0,0,0-1.3.5,2.11,2.11,0,0,0-.51,1.36Z"/><path class="cls-1" d="M50.49,12.63V8.08c0-.45,0-.83,0-1.14a2.36,2.36,0,0,0-.15-.75.81.81,0,0,0-.38-.43,1.57,1.57,0,0,0-.72-.13,1.64,1.64,0,0,0-.64.14,5.22,5.22,0,0,0-.69.4v6.46H45.05V8.08c0-.45,0-.82,0-1.13a2.43,2.43,0,0,0-.15-.76.81.81,0,0,0-.38-.43,1.52,1.52,0,0,0-.71-.13,1.51,1.51,0,0,0-.68.16,6.11,6.11,0,0,0-.65.38v6.46H39.61V3.51h2.84v1a8.26,8.26,0,0,1,1.31-.93,2.88,2.88,0,0,1,1.39-.33,2.65,2.65,0,0,1,1.46.4,2.49,2.49,0,0,1,1,1.18,9,9,0,0,1,1.54-1.17,3,3,0,0,1,1.47-.41,3.08,3.08,0,0,1,1.13.2,2.18,2.18,0,0,1,.85.61,2.74,2.74,0,0,1,.57,1,5.28,5.28,0,0,1,.19,1.58v5.93Z"/><path class="cls-1" d="M64.41,7.94a5.41,5.41,0,0,1-1.1,3.52,3.43,3.43,0,0,1-2.74,1.34,4.2,4.2,0,0,1-1.19-.15,4.93,4.93,0,0,1-1.07-.48l-.13.46H55.46V0h2.85V4.46a7.18,7.18,0,0,1,1.27-.87,3.32,3.32,0,0,1,1.51-.33A2.84,2.84,0,0,1,63.55,4.5,6,6,0,0,1,64.41,7.94ZM61.5,8a3.38,3.38,0,0,0-.42-1.94,1.45,1.45,0,0,0-1.27-.59,2.48,2.48,0,0,0-.76.13,3,3,0,0,0-.74.36v4.56a2.4,2.4,0,0,0,.57.15,3.64,3.64,0,0,0,.57,0A1.78,1.78,0,0,0,61,10,3.36,3.36,0,0,0,61.5,8Z"/><path class="cls-1" d="M68.81,12.63H66V0h2.84Z"/><path class="cls-1" d="M75.66,12.87a5.76,5.76,0,0,1-4-1.23,4.48,4.48,0,0,1-1.38-3.52A5,5,0,0,1,71.6,4.55a4.76,4.76,0,0,1,3.59-1.33,4.07,4.07,0,0,1,3.15,1.13A4.52,4.52,0,0,1,79.4,7.58v1H73.16a2.76,2.76,0,0,0,.27,1.08,2,2,0,0,0,.61.68,2.44,2.44,0,0,0,.85.37,5,5,0,0,0,1.06.11,4.53,4.53,0,0,0,1-.11,5.34,5.34,0,0,0,.88-.3,4.44,4.44,0,0,0,.65-.34l.48-.32h.3v2.35l-.64.25a5.13,5.13,0,0,1-.79.24,6.15,6.15,0,0,1-1,.19A8.24,8.24,0,0,1,75.66,12.87Zm.94-6a2.27,2.27,0,0,0-.42-1.38A1.48,1.48,0,0,0,75,5a1.72,1.72,0,0,0-1.3.5,2.11,2.11,0,0,0-.51,1.36Z"/></g></g></svg>