<svg class="svgImageIcon" id="e923e4f7-cd15-435e-97fb-cafa9bff40e8" data-name="Layer 1" xmlns="http://www.w3.org/2000/svg" viewBox="0 0 32 32"><path d="M14,17.12c0,.46.44.64,2.14.89,1.54.22,3.86.56,3.86,2.87a2.88,2.88,0,0,1-2.88,2.87H17V25H15V23.75h-.12A2.88,2.88,0,0,1,12,20.88h2a.87.87,0,0,0,.87.87h2.25a.87.87,0,0,0,.88-.86h0c0-.46-.44-.64-2.14-.89-1.54-.22-3.86-.56-3.86-2.87a2.88,2.88,0,0,1,2.88-2.87H15V13h2v1.25h.12A2.88,2.88,0,0,1,20,17.12H18a.87.87,0,0,0-.87-.87H14.88a.87.87,0,0,0-.88.86Zm14.15,6.44A12.58,12.58,0,0,1,17,31H15A12.58,12.58,0,0,1,3.85,23.56,10.57,10.57,0,0,1,5.72,12.35l5.6-6.47-2-3.38A1,1,0,0,1,10.18,1H21.77a1,1,0,0,1,.86,1.5L20.68,5.88l5.6,6.47A10.57,10.57,0,0,1,28.15,23.56ZM12,3l1.16,2h5.76L20,3ZM24.77,13.66,19,7H13L7.23,13.66a8.64,8.64,0,0,0-1.54,9.13A10.64,10.64,0,0,0,15.11,29a13.22,13.22,0,0,0,1.78,0,10.64,10.64,0,0,0,9.42-6.18A8.6,8.6,0,0,0,24.77,13.66Z" fill="#0c2074"></path></svg>